<?xml version="1.0" encoding="UTF-8" standalone="no"?>
<svg width="281px" height="19px" viewBox="0 0 281 19" version="1.1" xmlns="http://www.w3.org/2000/svg" xmlns:xlink="http://www.w3.org/1999/xlink" xmlns:sketch="http://www.bohemiancoding.com/sketch/ns">
    <!-- Generator: Sketch 3.3.3 (12081) - http://www.bohemiancoding.com/sketch -->
    <title>Michel-B-Logotype-CMYK</title>
    <desc>Created with Sketch.</desc>
    <defs>
        <path id="path-1" d="M0,0.51387401 L280.116917,0.51387401 L280.116917,18.282479 L0,18.282479"></path>
    </defs>
    <g id="Page-1" stroke="none" stroke-width="1" fill="none" fill-rule="evenodd" sketch:type="MSPage">
        <g id="Desktop-HD" sketch:type="MSArtboardGroup" transform="translate(-572.000000, -209.000000)">
            <g id="Michel-B-Logotype-CMYK" sketch:type="MSLayerGroup" transform="translate(572.270568, 209.175961)">
                <path d="M242.925717,14.3672136 C242.933131,14.9382662 242.925717,17.4621866 242.925717,17.9152167 C242.925717,17.9804589 230.572393,4.08460197 229.571494,3.11183334 C228.787827,2.35091862 227.480726,0.89066608 226.324872,0.746986613 L231.174416,0.746986613 L242.925717,14.3672136" id="Fill-1" fill="#1A1918" sketch:type="MSShapeGroup"></path>
                <path d="M92.9642848,1.52769392 C95.2189035,2.3795079 96.7150629,4.60800574 96.7639957,4.58308175 L96.8247911,4.64539173 L95.2003683,0.746986613 L88.1362423,0.746986613 C89.7510267,0.746986613 91.4295722,0.951509936 92.9642848,1.52769392" id="Fill-2" fill="#1A1918" sketch:type="MSShapeGroup"></path>
                <path d="M92.9309215,12.8622445 L92.9309215,5.42170068 C92.2028598,8.9330509 88.146622,9.01661957 88.1362423,9.01661957 C92.2955356,8.97850053 92.9309215,12.8622445 92.9309215,12.8622445" id="Fill-3" fill="#1A1918" sketch:type="MSShapeGroup"></path>
                <path d="M180.41695,12.8622445 L180.41695,5.42170068 C179.688888,8.9330509 175.63265,9.01661957 175.622271,9.01661957 C179.781564,8.97850053 180.41695,12.8622445 180.41695,12.8622445" id="Fill-4" fill="#1A1918" sketch:type="MSShapeGroup"></path>
                <path d="M218.877439,12.8622445 L218.877439,5.42170068 C218.149377,8.9330509 214.093139,9.01661957 214.08276,9.01661957 C218.242053,8.97850053 218.877439,12.8622445 218.877439,12.8622445" id="Fill-5" fill="#1A1918" sketch:type="MSShapeGroup"></path>
                <g id="Group-9">
                    <mask id="mask-2" sketch:name="Clip 7" fill="white">
                        <use xlink:href="#path-1"></use>
                    </mask>
                    <g id="Clip-7"></g>
                    <path d="M97.6129068,13.1686629 C96.7454606,14.6472419 95.3901685,16.1793342 93.7909536,16.8896679 C92.8879198,17.2913839 91.8277078,17.5149668 90.9128115,17.6359214 C89.8600136,17.7744695 90.0713146,17.7532108 90.0713146,17.7532108 L96.4207243,17.7532108 L97.6129068,13.2390365 L97.6129068,13.1686629" id="Fill-6" fill="#1A1918" sketch:type="MSShapeGroup" mask="url(#mask-2)"></path>
                    <path d="M197.030398,14.8195107 C197.030398,14.8195107 192.110421,2.44768234 192.065195,2.31279957 C191.713769,1.23520358 194.000268,0.764580018 194.081081,0.746986613 L186.937624,0.746986613 C187.306845,0.764580018 188.333694,1.17362666 188.85342,1.97705878 C189.037289,2.26441771 189.187795,2.56937005 189.339783,2.87285627 C189.428752,3.04659113 195.563895,18.3264625 195.563895,18.3264625 L197.030398,14.8195107" id="Fill-8" fill="#1A1918" sketch:type="MSShapeGroup" mask="url(#mask-2)"></path>
                </g>
                <path d="M5.81707947,0.746986613 L0.527140391,0.746986613 C0.527140391,0.746986613 1.25001223,0.746986613 2.19085774,1.2806532 C3.24439712,1.88176117 3.47942314,2.74310491 4.00508072,3.70927602 C4.41878584,4.4709238 10.0823941,17.3500286 10.0823941,17.3500286 L11.7149723,13.9119843 L5.81707947,0.746986613" id="Fill-10" fill="#1A1918" sketch:type="MSShapeGroup"></path>
                <path d="M117.25871,12.8153287 C116.185153,15.3942285 113.276613,17.191688 111.069444,17.6645107 C110.858143,17.7062951 110.646842,17.7414819 110.428127,17.7532108 L116.371987,17.7532108 L117.25871,12.8864354 L117.25871,12.8153287" id="Fill-11" fill="#1A1918" sketch:type="MSShapeGroup"></path>
                <g id="Group-15" fill="#1A1918" sketch:type="MSShapeGroup">
                    <path d="M279.207952,5.27582204 L279.207952,5.27582204 L279.192383,0.903128074 C279.192383,0.903128074 278.498426,1.9272108 278.452459,1.9272108 C278.43763,1.9272108 278.155154,1.69849655 277.990562,1.57827495 C277.822263,1.45951948 277.57315,1.33270036 277.249155,1.19048701 C276.921453,1.04900672 276.506265,0.918522303 275.991729,0.799033767 C275.583955,0.702270045 275.099816,0.650222891 274.548209,0.631896429 C274.548209,0.631896429 278.651897,1.38987892 279.207952,5.27582204" id="Fill-12"></path>
                    <path d="M279.210918,10.437287 C278.206311,9.17935856 276.688651,8.69920524 275.20732,8.21025522 C273.698557,7.71177544 271.575167,7.22575765 270.824122,5.65481328 C269.677165,3.25624587 271.75088,1.05926954 274.028483,0.626765019 C271.509923,0.667083237 268.919447,1.9272108 268.473861,4.59554375 C268.256629,5.89159118 268.53614,7.17077827 269.355394,8.21685275 C270.216909,9.33623308 271.450611,9.82958145 272.755487,10.2650182 C274.894446,10.9797502 277.966837,11.6197103 277.803727,14.434655 C277.702155,16.1808003 276.283102,17.7114265 274.548209,18.0347053 C276.427676,17.9144837 278.34792,17.2906509 279.414063,15.6529982 C280.406807,14.1260373 280.354909,11.8777469 279.210918,10.437287 C278.614827,9.69030034 279.806268,11.1864727 279.210918,10.437287" id="Fill-14"></path>
                </g>
                <path d="M271.478784,17.0861276 C271.228189,16.916791 270.924953,16.740857 270.634322,16.4754898 C269.12111,15.0885431 268.461999,13.5894385 268.315942,13.1657307 L268.315942,17.8661018 C268.443464,17.6916339 269.25827,17.0392118 269.307944,17.0392118 C269.355394,17.0392118 269.471054,17.0927251 269.654181,17.2026839 C269.836568,17.3163079 270.110147,17.4387287 270.476402,17.5706792 C270.842657,17.7018967 271.307519,17.8199191 271.863574,17.9152167 C272.421112,18.0075821 273.088379,18.0552309 273.86908,18.0552309 C273.897995,18.0552309 273.928393,18.0508326 273.958791,18.0508326 C273.958791,18.0508326 272.655397,17.8873605 271.478784,17.0861276" id="Fill-16" fill="#1A1918" sketch:type="MSShapeGroup"></path>
                <path d="M46.8480267,18.055964 C45.4489917,17.9533358 44.1678404,17.0326143 43.1624925,16.139749 C41.3037851,14.4911005 40.4593225,12.2523398 40.3940786,9.798793 C40.3318005,7.45153967 41.0035152,4.97380194 42.5589871,3.1602152 C43.5561796,1.99245301 45.2191555,0.623832785 46.8480267,0.51387401 C44.4807141,0.539531057 42.0592788,1.22713993 40.2939887,2.84793228 C38.4968181,4.49951309 37.4343818,6.94353013 37.4343818,9.36922071 C37.4343818,11.7260038 38.2766202,14.0285406 40.0389447,15.6551974 C41.8783755,17.3361005 44.3932281,18.0039168 46.8480267,18.055964 C46.0020813,17.9951201 46.8480267,18.055964 46.8480267,18.055964" id="Fill-17" fill="#1A1918" sketch:type="MSShapeGroup"></path>
                <path d="M253.30245,0.746986613 L248.842145,0.746986613 L248.842145,4.64539173 C248.842145,4.64539173 249.9461,0.746986613 253.30245,0.746986613" id="Fill-18" fill="#1A1918" sketch:type="MSShapeGroup"></path>
                <path d="M260.124136,0.746986613 L264.58444,0.746986613 L264.58444,4.64539173 C264.58444,4.64539173 263.481968,0.746986613 260.124136,0.746986613" id="Fill-19" fill="#1A1918" sketch:type="MSShapeGroup"></path>
                <path d="M198.860932,0.746986613 C200.343746,0.746986613 201.306834,1.8282479 201.011754,3.23938552 C200.963562,3.46443448 198.680029,10.2686835 198.680029,10.2686835 L198.932107,10.2686835 L201.395061,4.28985835 C201.395061,4.28985835 201.758351,3.45270554 201.906632,3.15581685 C202.470843,2.05402992 203.148489,1.06733318 204.422968,0.746986613 L198.860932,0.746986613" id="Fill-20" fill="#1A1918" sketch:type="MSShapeGroup"></path>
                <path d="M3.42455902,14.7418065 C3.33040033,14.1817498 3.27701903,13.6891345 3.25774244,12.8864354 C3.25774244,12.8175279 3.25106978,12.4766557 3.25106978,12.4766557 L2.82846778,12.4766557 C2.82846778,12.4766557 2.82550215,16.0737738 0,17.7532108 L6.07879615,17.7532108 C4.68420955,17.4790469 3.65068816,16.0488498 3.42455902,14.7418065" id="Fill-21" fill="#1A1918" sketch:type="MSShapeGroup"></path>
                <path d="M19.6480274,14.2689837 L19.6480274,4.23121367 C19.6480274,1.99978359 21.0974781,1.02115049 22.4913233,0.746986613 L14.2402046,0.746986613 C15.636274,1.02115049 17.0842419,1.99978359 17.0842419,4.23121367 L17.0842419,14.2689837 C17.0842419,16.5004138 15.636274,17.4790469 14.2402046,17.7532108 L22.4913233,17.7532108 C21.0974781,17.4790469 19.6480274,16.5004138 19.6480274,14.2689837" id="Fill-22" fill="#1A1918" sketch:type="MSShapeGroup"></path>
                <path d="M63.0025443,15.0973398 L63.0025443,3.40285757 C63.0025443,1.17142749 64.451995,1.02115049 65.8465816,0.746986613 L57.5954629,0.746986613 C58.9915323,1.02115049 60.4395002,1.17142749 60.4395002,3.40285757 L60.4395002,15.0973398 C60.4395002,17.3280369 58.9915323,17.4790469 57.5954629,17.7532108 L65.8465816,17.7532108 C64.451995,17.4790469 63.0025443,17.3280369 63.0025443,15.0973398" id="Fill-23" fill="#1A1918" sketch:type="MSShapeGroup"></path>
                <path d="M31.767808,15.0973398 L31.767808,3.40285757 C31.767808,1.17142749 33.2157759,1.02115049 34.6118453,0.746986613 L26.3607266,0.746986613 C27.7553132,1.02115049 29.2047639,1.17142749 29.2047639,3.40285757 L29.2047639,15.0973398 C29.2047639,17.3280369 27.7553132,17.4790469 26.3607266,17.7532108 L34.6118453,17.7532108 C33.2157759,17.4790469 31.767808,17.3280369 31.767808,15.0973398" id="Fill-24" fill="#1A1918" sketch:type="MSShapeGroup"></path>
                <path d="M74.9391973,15.0973398 L74.9391973,3.40285757 C74.9391973,1.17142749 76.3871652,1.02115049 77.7832346,0.746986613 L69.5306331,0.746986613 C70.9267025,1.02115049 72.3761532,1.17142749 72.3761532,3.40285757 L72.3761532,15.0973398 C72.3761532,17.3280369 70.9267025,17.4790469 69.5306331,17.7532108 L77.7832346,17.7532108 C76.3871652,17.4790469 74.9391973,17.3280369 74.9391973,15.0973398" id="Fill-25" fill="#1A1918" sketch:type="MSShapeGroup"></path>
                <path d="M106.190986,15.0973398 L106.190986,3.40285757 C106.190986,1.17142749 107.638954,1.02115049 109.033541,0.746986613 L100.783905,0.746986613 C102.178491,1.02115049 103.626459,1.17142749 103.626459,3.40285757 L103.626459,15.0973398 C103.626459,17.3280369 102.178491,17.4790469 100.783905,17.7532108 L109.033541,17.7532108 C107.638954,17.4790469 106.190986,17.3280369 106.190986,15.0973398" id="Fill-26" fill="#1A1918" sketch:type="MSShapeGroup"></path>
                <path d="M62.9706638,8.87074093 L72.3843087,8.87074093 L72.3843087,9.34576284 L62.9706638,9.34576284 L62.9706638,8.87074093 Z" id="Fill-27" fill="#1A1918" sketch:type="MSShapeGroup"></path>
                <path d="M86.7535182,0.746986613 L81.344954,0.746986613 C82.7410234,1.02115049 84.1904741,1.17142749 84.1904741,3.40285757 L84.1904741,15.0973398 C84.1904741,17.3280369 82.7410234,17.4790469 81.344954,17.7532108 L86.7535182,17.7532108 L86.7535182,0.746986613" id="Fill-28" fill="#1A1918" sketch:type="MSShapeGroup"></path>
                <path d="M180.453279,1.52769392 C182.70938,2.3795079 184.204057,4.60800574 184.25299,4.58308175 L184.315268,4.64539173 L182.690845,0.746986613 L175.626719,0.746986613 C177.241503,0.746986613 178.918566,0.951509936 180.453279,1.52769392" id="Fill-29" fill="#1A1918" sketch:type="MSShapeGroup"></path>
                <path d="M185.103384,13.1686629 C184.234454,14.6472419 182.880645,16.1793342 181.28143,16.8896679 C180.378397,17.2913839 179.318185,17.5149668 178.402547,17.6359214 C177.349008,17.7744695 177.561791,17.7532108 177.561791,17.7532108 L183.909718,17.7532108 L185.103384,13.2390365 L185.103384,13.1686629" id="Fill-30" fill="#1A1918" sketch:type="MSShapeGroup"></path>
                <path d="M174.243995,0.746986613 L168.835431,0.746986613 C170.2315,1.02115049 171.679468,1.17142749 171.679468,3.40285757 L171.679468,15.0973398 C171.679468,17.3280369 170.2315,17.4790469 168.835431,17.7532108 L174.243995,17.7532108 L174.243995,0.746986613" id="Fill-31" fill="#1A1918" sketch:type="MSShapeGroup"></path>
                <path d="M218.938234,1.52769392 C221.194336,2.3795079 222.68753,4.60800574 222.736462,4.58308175 L222.798741,4.64539173 L221.174318,0.746986613 L214.110933,0.746986613 C215.726459,0.746986613 217.402039,0.951509936 218.938234,1.52769392" id="Fill-32" fill="#1A1918" sketch:type="MSShapeGroup"></path>
                <path d="M223.586856,13.1686629 C222.717927,14.6472419 221.364118,16.1793342 219.765644,16.8896679 C218.861869,17.2913839 217.801657,17.5149668 216.886761,17.6359214 C215.83248,17.7744695 216.046747,17.7532108 216.046747,17.7532108 L222.394674,17.7532108 L223.586856,13.2390365 L223.586856,13.1686629" id="Fill-33" fill="#1A1918" sketch:type="MSShapeGroup"></path>
                <path d="M212.727468,0.746986613 L207.320386,0.746986613 C208.714973,1.02115049 210.164424,1.17142749 210.164424,3.40285757 L210.164424,15.0973398 C210.164424,17.3280369 208.714973,17.4790469 207.320386,17.7532108 L212.727468,17.7532108 L212.727468,0.746986613" id="Fill-34" fill="#1A1918" sketch:type="MSShapeGroup"></path>
                <path d="M138.026262,16.5216725 L138.026262,1.97705878 C138.026262,1.00062486 138.879621,0.746986613 138.879621,0.746986613 L132.618439,0.746986613 C134.013767,1.02115049 135.463218,1.17142749 135.463218,3.40285757 L135.463218,15.0973398 C135.463218,17.3280369 134.013767,17.4790469 132.618439,17.7532108 L138.879621,17.7532108 C138.879621,17.7532108 138.026262,17.4988395 138.026262,16.5216725" id="Fill-35" fill="#1A1918" sketch:type="MSShapeGroup"></path>
                <path d="M147.934425,11.4107886 C147.414699,10.4145621 146.50351,9.71302515 145.467023,9.2951818 L145.48111,9.29591486 C144.874639,9.05987003 144.233322,8.8941988 143.586815,8.81136319 C145.974887,8.1999924 147.904028,6.54181407 147.223416,3.89473982 C146.565788,1.34516235 143.508967,0.746986613 141.235813,0.746986613 L139.976904,0.746986613 C142.321233,0.788770948 144.605508,2.51219149 144.605508,4.94887795 C144.605508,7.54243893 142.181107,8.91325833 139.801932,9.02981463 C142.495464,9.11411635 145.699825,10.374977 145.561182,13.5183318 C145.500386,14.8957488 144.718202,16.2196524 143.431861,16.8090314 C142.498429,17.2378707 141.043047,17.8411778 139.976904,17.7532108 L141.164638,17.7532108 C143.113797,17.7532108 145.278705,17.7598083 146.823798,16.4065823 C148.196142,15.2029003 148.820407,13.0777637 147.934425,11.4107886 C147.67345,10.9130419 148.199108,11.9070692 147.934425,11.4107886" id="Fill-36" fill="#1A1918" sketch:type="MSShapeGroup"></path>
                <path d="M154.25492,16.3831245 C154.25492,17.1528359 153.623983,17.7766687 152.846247,17.7766687 C152.067028,17.7766687 151.435349,17.1528359 151.435349,16.3831245 C151.435349,15.613413 152.067028,14.9881141 152.846247,14.9881141 C153.623983,14.9881141 154.25492,15.613413 154.25492,16.3831245" id="Fill-37" fill="#1A1918" sketch:type="MSShapeGroup"></path>
                <path d="M229.128132,11.0977727 L228.947229,11.0977727 C228.927211,11.5757268 228.851588,13.2866853 228.830087,13.6744733 C228.728514,15.4704666 228.408968,17.4988395 226.324872,17.8719663 L231.75123,17.8719663 C229.662687,17.4981064 229.345365,15.463136 229.246016,13.6642105 C229.223774,13.2793548 229.148892,11.5757268 229.128132,11.0977727" id="Fill-38" fill="#1A1918" sketch:type="MSShapeGroup"></path>
                <path d="M242.848611,7.51751494 L243.029514,7.51751494 C243.050273,7.03956079 243.125155,5.32860225 243.147398,4.94008124 C243.248229,3.14482097 243.568517,1.11571504 245.652612,0.743321321 L240.226254,0.743321321 C242.314798,1.1164481 242.631378,3.15215156 242.731468,4.95107712 C242.752969,5.33519978 242.828593,7.03956079 242.848611,7.51751494" id="Fill-39" fill="#1A1918" sketch:type="MSShapeGroup"></path>
                <path d="M255.435478,0.746986613 L255.435478,15.2586127 C255.435478,17.4900428 253.98751,17.6410528 252.59144,17.9152167 L260.842559,17.9152167 C259.447972,17.6410528 258.000004,17.4900428 258.000004,15.2586127 L258.000004,0.746986613 L255.435478,0.746986613" id="Fill-40" fill="#1A1918" sketch:type="MSShapeGroup"></path>
                <path d="M54.2880462,1.02334967 C54.1894391,1.16702914 52.9460995,2.16325564 52.914219,2.16325564 C52.8823385,2.16325564 52.7370227,2.08042003 52.4842029,1.90595211 C52.2247105,1.72928501 51.8554898,1.54015591 51.3720924,1.33489953 C50.892402,1.13037621 50.2888967,0.936115707 49.5675077,0.764580018 C48.9951415,0.623832785 48.3449275,0.54319635 47.6257627,0.51387401 C48.3338064,0.539531057 50.1102176,1.18022419 51.5744965,2.50192867 C53.1559177,3.9233291 54.0797108,5.62329177 54.2880462,6.38420649 L54.2880462,1.02334967" id="Fill-41" fill="#1A1918" sketch:type="MSShapeGroup"></path>
                <path d="M51.7250021,16.0774391 C49.5526796,17.8639026 48.3827393,18.0728243 47.6257627,18.0948161 C48.3427033,18.0728243 48.9929173,18.0031837 49.5675077,17.8778307 C50.2570162,17.7231554 50.8419864,17.5501536 51.3253837,17.35516 C51.8072983,17.154302 52.1750362,16.9732366 52.4300802,16.8068323 C52.6895727,16.6396949 52.834147,16.5561263 52.8660275,16.5561263 C52.9460995,16.5561263 54.0737796,17.3580923 54.2650626,17.6241925 L54.2650626,12.3886887 C54.1204882,13.0682339 53.400582,14.6963568 51.7250021,16.0774391" id="Fill-42" fill="#1A1918" sketch:type="MSShapeGroup"></path>
            </g>
        </g>
    </g>
</svg>