<?xml version="1.0" encoding="UTF-8" standalone="no"?>
<svg width="107px" height="66px" viewBox="0 0 107 66" version="1.1" xmlns="http://www.w3.org/2000/svg" xmlns:xlink="http://www.w3.org/1999/xlink" xmlns:sketch="http://www.bohemiancoding.com/sketch/ns">
    <!-- Generator: Sketch 3.3.3 (12081) - http://www.bohemiancoding.com/sketch -->
    <title>Michel-B-Monogram-CMYK</title>
    <desc>Created with Sketch.</desc>
    <defs>
        <path id="path-1" d="M0.0500449738,0.548364876 L106.132878,0.548364876 L106.132878,65.1926556 L0.0500449738,65.1926556"></path>
        <path id="path-3" d="M0.0500449738,0.548364876 L106.132878,0.548364876 L106.132878,65.1926556 L0.0500449738,65.1926556"></path>
    </defs>
    <g id="Page-1" stroke="none" stroke-width="1" fill="none" fill-rule="evenodd" sketch:type="MSPage">
        <g id="Desktop-HD" sketch:type="MSArtboardGroup" transform="translate(-659.000000, -119.000000)">
            <g id="Michel-B-Monogram-CMYK" sketch:type="MSLayerGroup" transform="translate(659.015189, 119.009766)">
                <g id="Group-4">
                    <mask id="mask-2" sketch:name="Clip 2" fill="white">
                        <use xlink:href="#path-1"></use>
                    </mask>
                    <g id="Clip-2"></g>
                    <path d="M20.9947006,11.2695589 L3.89016263,11.2695589 C3.89016263,11.2695589 5.87694809,11.2695589 8.46427324,12.6272575 C11.3602091,14.1559071 12.0091255,16.3427598 13.452089,18.7996657 C14.589778,20.734634 30.164608,53.4779632 30.164608,53.4779632 L37.2109403,44.7371592 L20.9947006,11.2695589" id="Fill-1" fill="#1A1918" sketch:type="MSShapeGroup" mask="url(#mask-2)"></path>
                    <path d="M10.3768253,45.8454509 C10.3776594,45.6695447 10.3593096,41.0893766 10.3593096,41.0893766 L9.1974321,41.0893766 C9.1974321,41.0893766 8.11395842,49.6906118 0,54.5003664 L18.1371326,54.5003664 C14.3003513,53.8033484 10.3593096,50.6865878 10.3768253,45.8454509" id="Fill-3" fill="#1A1918" sketch:type="MSShapeGroup" mask="url(#mask-2)"></path>
                </g>
                <path d="M60.5761045,45.6439433 L60.5761045,20.1268078 C60.5761045,14.455691 64.7882231,11.965751 68.6258385,11.2695589 L42.1854107,11.2695589 C46.022192,11.965751 50.0049378,14.455691 50.0049378,20.1268078 L50.0049378,45.6439433 C50.0049378,51.315886 46.022192,53.8033484 42.1854107,54.5003664 L68.3964657,54.5003664 C64.5596844,53.8033484 60.5761045,51.315886 60.5761045,45.6439433" id="Fill-5" fill="#1A1918" sketch:type="MSShapeGroup"></path>
                <path d="M94.6659066,22.112153 C94.6659066,22.112153 93.7125498,31.9133493 83.1989349,32.8944599 C93.7125498,33.8772223 94.6659066,43.6784186 94.6659066,43.6784186 C94.6659066,43.6784186 95.6200974,33.8772223 106.132878,32.8944599 C95.6200974,31.9133493 94.6659066,22.112153 94.6659066,22.112153" id="Fill-6" fill="#1A1918" sketch:type="MSShapeGroup"></path>
                <g id="Group-10">
                    <mask id="mask-4" sketch:name="Clip 8" fill="white">
                        <use xlink:href="#path-3"></use>
                    </mask>
                    <g id="Clip-8"></g>
                    <path d="M94.6659066,0.548364876 C94.6659066,0.548364876 93.7125498,10.3487353 83.1989349,11.3314977 C93.7125498,12.3126083 94.6659066,22.112153 94.6659066,22.112153 C94.6659066,22.112153 95.6200974,12.3126083 106.132878,11.3314977 C95.6200974,10.3487353 94.6659066,0.548364876 94.6659066,0.548364876" id="Fill-7" fill="#1A1918" sketch:type="MSShapeGroup" mask="url(#mask-4)"></path>
                    <path d="M94.6659066,43.6784186 C94.6659066,43.6784186 93.7125498,53.4779632 83.1989349,54.4590739 C93.7125498,55.4418362 94.6659066,65.2422067 94.6659066,65.2422067 C94.6659066,65.2422067 95.6200974,55.4418362 106.132878,54.4590739 C95.6200974,53.4779632 94.6659066,43.6784186 94.6659066,43.6784186" id="Fill-9" fill="#1A1918" sketch:type="MSShapeGroup" mask="url(#mask-4)"></path>
                </g>
            </g>
        </g>
    </g>
</svg>